<?xml version="1.0" encoding="UTF-8"?>
<svg id="uuid-30364023-deac-43cd-b375-c4f022b58428" data-name="Livello 2" xmlns="http://www.w3.org/2000/svg" viewBox="0 0 497.32 52.13">
  <g id="uuid-73392c66-eab5-4512-bfd1-8a472d02c427" data-name="Logo">
    <g>
      <g>
        <path d="m139.99,41.22c4.05,0,7.23-.14,9.54-.43,2.31-.29,4.06-.75,5.24-1.37,1.18-.62,1.93-1.43,2.27-2.41.33-.98.57-2.19.7-3.61h13.41c-.04,2.37-.21,4.46-.5,6.29-.29,1.83-.8,3.44-1.53,4.82-.73,1.38-1.79,2.57-3.17,3.55-1.38.98-3.21,1.78-5.5,2.38-2.29.6-5.1,1.04-8.44,1.31-3.34.27-7.34.4-12.01.4s-9.1-.15-12.61-.43c-3.51-.29-6.48-.79-8.9-1.51-2.42-.71-4.38-1.69-5.87-2.94-1.49-1.25-2.62-2.84-3.4-4.78-.78-1.94-1.3-4.25-1.57-6.93-.27-2.68-.4-5.82-.4-9.44s.13-6.92.4-9.64c.27-2.72.79-5.05,1.57-6.99.78-1.94,1.91-3.52,3.4-4.75,1.49-1.23,3.45-2.18,5.87-2.88,2.42-.69,5.39-1.17,8.9-1.44,3.51-.27,7.71-.4,12.61-.4s8.76.13,12.14.4c3.38.27,6.2.68,8.47,1.24,2.27.56,4.08,1.29,5.44,2.21,1.36.91,2.4,2.02,3.14,3.31.73,1.29,1.22,2.81,1.47,4.55.24,1.74.41,3.7.5,5.89h-13.41c-.13-1.25-.38-2.3-.73-3.15-.36-.85-1.11-1.53-2.27-2.04-1.16-.51-2.89-.88-5.2-1.1-2.31-.22-5.49-.33-9.54-.33s-7.55.13-9.97.4c-2.42.27-4.27.81-5.54,1.64s-2.07,1.98-2.4,3.48c-.33,1.5-.5,3.45-.5,5.85v7.43c0,2.41.17,4.36.5,5.85.33,1.5,1.13,2.65,2.4,3.48,1.27.83,3.11,1.38,5.54,1.67,2.42.29,5.75.43,9.97.43Z" fill="#00205c"/>
        <path d="m212.7,52.13c-5.29,0-9.82-.13-13.57-.4-3.76-.27-6.92-.75-9.47-1.44-2.56-.69-4.59-1.65-6.1-2.88-1.51-1.23-2.66-2.8-3.44-4.72-.78-1.92-1.28-4.24-1.5-6.96-.22-2.72-.33-5.91-.33-9.57s.11-6.85.33-9.57c.22-2.72.72-5.05,1.5-6.99.78-1.94,1.91-3.54,3.4-4.79,1.49-1.25,3.51-2.23,6.07-2.94,2.56-.71,5.71-1.2,9.47-1.47,3.76-.27,8.31-.4,13.64-.4s9.67.13,13.41.4c3.74.27,6.88.76,9.44,1.47,2.56.71,4.59,1.7,6.1,2.94,1.51,1.25,2.67,2.84,3.47,4.79.8,1.94,1.32,4.27,1.57,6.99.24,2.72.37,5.91.37,9.57s-.12,6.85-.37,9.57-.77,5.04-1.57,6.96c-.8,1.92-1.96,3.49-3.47,4.72-1.51,1.23-3.55,2.19-6.1,2.88-2.56.69-5.7,1.17-9.44,1.44-3.74.27-8.2.4-13.41.4Zm20.14-30.02c0-2.19-.25-4.01-.73-5.47-.49-1.45-1.46-2.6-2.9-3.45-1.45-.85-3.48-1.45-6.1-1.81-2.62-.36-6.09-.54-10.41-.54s-7.94.18-10.61.54c-2.67.36-4.73.96-6.17,1.81-1.45.85-2.39,2-2.83,3.45-.45,1.45-.67,3.28-.67,5.47v8.05c0,2.19.22,4.01.67,5.47.44,1.45,1.39,2.61,2.83,3.49,1.44.87,3.5,1.49,6.17,1.85,2.67.36,6.2.54,10.61.54s7.78-.18,10.41-.54c2.62-.36,4.66-.97,6.1-1.85,1.44-.87,2.41-2.03,2.9-3.49.49-1.45.73-3.28.73-5.47v-8.05Z" fill="#00205c"/>
        <path d="m255.39,51.53V.74h14.07v50.79h-14.07Z" fill="#00205c"/>
        <path d="m345.9,51.53v-23.29c0-2.32.01-4.64.03-6.96.02-2.32.08-4.64.17-6.96-1.11,2.1-2.24,4.15-3.37,6.16-1.13,2.01-2.28,4.02-3.44,6.02l-14.54,25.03h-13.34l-13.54-24.83c-1.11-2.05-2.23-4.09-3.37-6.12-1.13-2.03-2.21-4.12-3.24-6.26.09,2.32.16,4.64.2,6.96.04,2.32.07,4.69.07,7.09v23.15h-13.21V.74h19.41l20.81,38.55L340.37.74h18.54v50.79h-13.01Z" fill="#00205c"/>
        <path d="m416.88,41.56h-32.42l-5.2,9.97h-14.68L391.93.74h18.15l26.75,50.79h-14.81l-5.14-9.97Zm-27.08-10.31h21.81l-4-7.89c-1.02-2.01-1.89-3.72-2.6-5.12-.71-1.41-1.31-2.63-1.8-3.68-.49-1.05-.92-1.98-1.3-2.81s-.72-1.66-1.03-2.51c-.36.85-.71,1.68-1.07,2.51-.36.83-.8,1.77-1.34,2.84-.53,1.07-1.17,2.32-1.9,3.75-.74,1.43-1.64,3.17-2.7,5.22l-4.07,7.69Z" fill="#00205c"/>
        <path d="m456.9,32.26v19.27h-14.21V.74h54.63v11.24h-40.42v9.1h38.82v11.18h-38.82Z" fill="#00205c"/>
      </g>
      <g>
        <rect x="29.56" y="6.61" width="10" height="10" rx="1.88" ry="1.88" fill="#00205c"/>
        <rect x="44.34" y="6.61" width="10" height="10" rx="1.88" ry="1.88" fill="#00205c"/>
        <rect x="73.9" y="6.61" width="10" height="10" rx="1.88" ry="1.88" fill="#00205c"/>
        <rect x="14.78" y="21.39" width="10" height="10" rx="1.88" ry="1.88" fill="#00205c"/>
        <rect x="29.56" y="21.39" width="10" height="10" rx="1.88" ry="1.88" fill="#00205c"/>
        <rect x="59.12" y="21.39" width="10" height="10" rx="1.88" ry="1.88" fill="#00205c"/>
        <rect x="0" y="36.17" width="10" height="10" rx="1.88" ry="1.88" fill="#00205c"/>
        <rect x="14.78" y="36.17" width="10" height="10" rx="1.88" ry="1.88" fill="#00205c"/>
        <rect x="29.56" y="36.17" width="10" height="10" rx="1.64" ry="1.64" fill="#00205c"/>
        <rect x="44.34" y="36.17" width="10" height="10" rx="1.88" ry="1.88" fill="#00205c"/>
        <rect x="59.12" y="36.17" width="10" height="10" rx="1.88" ry="1.88" fill="#00205c"/>
        <rect x="73.9" y="36.17" width="10" height="10" rx="1.88" ry="1.88" fill="#00205c"/>
      </g>
    </g>
  </g>
</svg>